<?xml version="1.0" encoding="UTF-8" standalone="no"?>
<svg
   width="24px"
   height="24px"
   viewBox="0 0 24 24"
   version="1.1"
   id="svg8"
   sodipodi:docname="test.svg"
   xml:space="preserve"
   inkscape:version="1.3.2 (091e20e, 2023-11-25)"
   xmlns:inkscape="http://www.inkscape.org/namespaces/inkscape"
   xmlns:sodipodi="http://sodipodi.sourceforge.net/DTD/sodipodi-0.dtd"
   xmlns:xlink="http://www.w3.org/1999/xlink"
   xmlns="http://www.w3.org/2000/svg"
   xmlns:svg="http://www.w3.org/2000/svg"><sodipodi:namedview
     id="namedview8"
     pagecolor="#ffffff"
     bordercolor="#000000"
     borderopacity="0.25"
     inkscape:showpageshadow="2"
     inkscape:pageopacity="0.0"
     inkscape:pagecheckerboard="0"
     inkscape:deskcolor="#d1d1d1"
     inkscape:zoom="16.617318"
     inkscape:cx="14.92419"
     inkscape:cy="12.035637"
     inkscape:current-layer="g8" /><title
     id="title1">24*24</title><defs
     id="defs6"><linearGradient
       id="linearGradient22"
       inkscape:collect="always"><stop
         style="stop-color:#62aaff;stop-opacity:1;"
         offset="0"
         id="stop21" /><stop
         style="stop-color:#b534fd;stop-opacity:1;"
         offset="1"
         id="stop22" /></linearGradient><linearGradient
       id="linearGradient20"
       inkscape:collect="always"><stop
         style="stop-color:#45b9fe;stop-opacity:1;"
         offset="0"
         id="stop19" /><stop
         style="stop-color:#bc3ef8;stop-opacity:1;"
         offset="1"
         id="stop20" /></linearGradient><linearGradient
       id="linearGradient13"
       inkscape:collect="always"><stop
         style="stop-color:#62aaff;stop-opacity:1;"
         offset="0"
         id="stop13" /><stop
         style="stop-color:#bc3ef8;stop-opacity:1;"
         offset="1"
         id="stop14" /></linearGradient><rect
       id="path-1"
       x="0"
       y="0"
       width="24"
       height="24" /><linearGradient
       x1="1.7479838"
       y1="0.29602799"
       x2="17.511362"
       y2="16.71349"
       id="linearGradient-3"
       gradientTransform="matrix(0.89301511,0,0,1.1198019,0.20786815,0.02585798)"
       gradientUnits="userSpaceOnUse"><stop
         stop-color="#5AB4FE"
         offset="0"
         id="stop1"
         style="stop-color:#45b9fe;stop-opacity:1;" /><stop
         stop-color="#A256FF"
         offset="1"
         id="stop2"
         style="stop-color:#b534fd;stop-opacity:1;" /></linearGradient><linearGradient
       x1="5.1208941"
       y1="2.8216878"
       x2="5.1208941"
       y2="8.2173372"
       id="linearGradient-4"
       gradientTransform="scale(1.2645219,0.79081271)"
       gradientUnits="userSpaceOnUse"><stop
         stop-color="#FFE94E"
         offset="0%"
         id="stop3" /><stop
         stop-color="#FCB309"
         offset="100%"
         id="stop4" /></linearGradient><linearGradient
       x1="6.6159539"
       y1="1.3441785"
       x2="6.6159539"
       y2="12.164881"
       id="linearGradient-5"
       gradientTransform="scale(0.98308804,1.0172029)"
       gradientUnits="userSpaceOnUse"><stop
         stop-color="#62AAFF"
         offset="0%"
         id="stop5" /><stop
         stop-color="#BC3EF8"
         offset="100%"
         id="stop6" /></linearGradient><linearGradient
       x1="6.6159538"
       y1="1.3441786"
       x2="6.6159538"
       y2="12.164881"
       id="linearGradient-5-9"
       gradientTransform="matrix(0.9450049,-0.2709758,0.28037912,0.97779823,-2.6834692,0.57493713)"
       gradientUnits="userSpaceOnUse"><stop
         stop-color="#62AAFF"
         offset="0"
         id="stop5-3"
         style="stop-color:#5d8ab6;stop-opacity:1;" /><stop
         stop-color="#BC3EF8"
         offset="1"
         id="stop6-8"
         style="stop-color:#362353;stop-opacity:1;" /></linearGradient><linearGradient
       inkscape:collect="always"
       xlink:href="#linearGradient-5-9"
       id="linearGradient10"
       x1="0.60888749"
       y1="1.7327065"
       x2="14.164001"
       y2="19.639929"
       gradientUnits="userSpaceOnUse"
       gradientTransform="matrix(1.0422134,0.00507147,0.00892931,1.0010728,-0.47003837,0.41706673)" /><linearGradient
       inkscape:collect="always"
       xlink:href="#linearGradient22"
       id="linearGradient14"
       x1="77.793541"
       y1="-95.441055"
       x2="932.66913"
       y2="1086.0815"
       gradientUnits="userSpaceOnUse" /><linearGradient
       inkscape:collect="always"
       xlink:href="#linearGradient13"
       id="linearGradient15"
       gradientUnits="userSpaceOnUse"
       x1="17.066667"
       y1="511.99998"
       x2="1006.9333"
       y2="511.99998" /><linearGradient
       inkscape:collect="always"
       xlink:href="#linearGradient20"
       id="linearGradient16"
       gradientUnits="userSpaceOnUse"
       x1="17.066667"
       y1="511.99998"
       x2="1006.9333"
       y2="511.99998" /><linearGradient
       inkscape:collect="always"
       xlink:href="#linearGradient13"
       id="linearGradient17"
       gradientUnits="userSpaceOnUse"
       x1="17.066667"
       y1="511.99998"
       x2="1006.9333"
       y2="511.99998" /></defs><g
     transform="matrix(0.87291334,-0.11113114,0.18464547,0.92502269,3.4589214,3.8417928)"
     id="g8"
     inkscape:label="logo"><g
       id="g7"
       inkscape:label="ground"><path
         d="M 0.62423784,1.2743625 14.170935,1.3402815 c 0.576171,0.0028 1.047251,0.4537174 1.052188,1.0071443 6e-6,7.6e-4 1.2e-5,0.00152 1.7e-5,0.00228 l 0.11352,17.3290532 c 0.0036,0.552529 -0.459084,0.99751 -1.034329,0.994711 L 0.75563602,20.607553 c -0.57617071,-0.0028 -1.04725112,-0.453717 -1.05218755,-1.007144 -6.78e-6,-7.6e-4 -1.25e-5,-0.0015 -1.784e-5,-0.0023 L -0.41009097,2.2690736 C -0.41371043,1.7165449 0.04899392,1.2715633 0.62423784,1.2743625 Z"
         id="矩形"
         inkscape:label="shadow"
         style="fill:url(#linearGradient10);fill-opacity:1;fill-rule:nonzero;stroke-width:1.02103;stroke-dasharray:none"
         fill="#4c79a7" /><rect
         id="rect6"
         stroke="url(#linearGradient-3)"
         stroke-width="0.750745"
         fill="#ffffff"
         x="1.3812526"
         y="0.025857976"
         width="15"
         height="19"
         rx="1.000994"
         style="stroke:url(#linearGradient-3);stroke-width:0.751003;stroke-dasharray:none"
         inkscape:label="rect" /></g><g
       id="g10"
       transform="matrix(0.01098858,-3.6436569e-4,-4.2457031e-4,0.01038332,3.5115984,4.1774195)"
       inkscape:transform-center-x="0.42719282"
       inkscape:transform-center-y="0.40179573"
       style="fill:url(#linearGradient14)"
       inkscape:label="panda"><path
         d="m 430.08,535.89333 c 27.30667,-27.30666 47.78667,-44.37333 47.78667,-88.74666 0,-61.44 -44.37334,-98.98667 -119.46667,-98.98667 -64.85333,0 -95.57333,54.61333 -112.64,92.16 -6.82667,10.24 -13.65333,23.89333 -20.48,40.96 -27.30667,47.78667 -51.2,98.98667 -44.37333,133.12 3.41333,10.24 10.24,30.72 51.2,30.72 44.37333,0 119.46666,-27.30667 160.42666,-71.68 C 406.18667,556.37333 419.84,546.13333 430.08,535.89333 Z"
         fill=""
         p-id="18211"
         id="path1"
         style="fill:url(#linearGradient15);fill-opacity:1" /><path
         d="m 928.42667,334.50667 c 40.96,-17.06667 78.50663,-54.61334 78.50663,-112.64 C 1006.9333,133.12 877.22667,20.48 802.13333,20.48 754.34667,20.48 716.8,54.613333 692.90667,95.573333 c -37.54667,-27.306667 -105.81334,-40.96 -184.32,-40.96 -75.09334,0 -146.77334,17.066667 -184.32,40.96 C 307.2,51.2 269.65333,17.066667 221.86667,17.066667 146.77333,17.066667 17.066667,133.12 17.066667,218.45333 c 0,61.44 37.546667,95.57334 78.506666,109.22667 -10.24,30.72 -37.546667,119.46667 -37.546666,153.6 -20.48,40.96 -40.96,92.16 -40.96,150.18667 0,17.06666 6.826667,375.46663 494.933333,375.46663 488.1067,0 494.9333,-358.39997 494.9333,-372.0533 0,-58.02667 -20.47997,-109.22667 -40.95997,-150.18667 C 962.56,450.56 938.66667,368.64 928.42667,334.50667 Z M 512,972.8 C 58.026667,972.8 51.2,648.53333 51.2,634.88 c 0,-51.2 20.48,-98.98667 40.96,-136.53333 0,-3.41334 3.413333,-3.41334 3.413333,-6.82667 0,-20.48 20.479997,-98.98667 37.546667,-150.18667 h 27.30667 c 3.41333,0 6.82666,0 10.24,-3.41333 L 184.32,324.26667 c 3.41333,-3.41334 6.82667,-6.82667 6.82667,-10.24 C 197.97333,238.93333 256,177.49333 334.50667,174.08 c 0,-3.41333 6.82666,-3.41333 6.82666,-6.82667 0,-3.41333 3.41334,-6.82666 3.41334,-13.65333 0,-10.24 -3.41334,-17.06667 -6.82667,-27.30667 30.72,-23.89333 98.98667,-40.959997 170.66667,-40.959997 71.68,0 139.94666,17.066667 170.66666,40.959997 -3.41333,13.65334 -6.82666,27.30667 -6.82666,40.96 0,3.41334 3.41333,10.24 3.41333,13.65334 l 6.82667,6.82666 c 3.41333,3.41334 6.82666,3.41334 10.24,3.41334 C 764.58667,197.97333 822.61333,256 829.44,327.68 c 0,3.41333 3.41333,6.82667 3.41333,10.24 l 6.82667,6.82667 c 3.41333,3.41333 6.82667,3.41333 13.65333,3.41333 10.24,0 23.89334,0 37.54667,-3.41333 17.06667,51.2 37.54667,122.88 37.54667,143.36 0,3.41333 0,6.82666 3.41333,6.82666 C 948.90667,532.48 972.8,580.26667 972.8,631.46667 972.8,648.53333 965.97333,972.8 512,972.8 Z"
         fill=""
         p-id="18212"
         id="path2"
         style="fill:url(#linearGradient16);fill-opacity:1" /><path
         d="m 778.24,440.32 c -17.06667,-40.96 -51.2,-92.16 -116.05333,-92.16 -71.68,0 -116.05334,37.54667 -116.05334,98.98667 0,44.37333 20.48,61.44 47.78667,88.74666 L 631.46667,573.44 c 40.96,44.37333 116.05333,71.68 160.42666,71.68 40.96,0 47.78667,-20.48 51.2,-30.72 C 849.92,576.85333 826.02667,529.06667 798.72,481.28 788.48,464.21333 781.65333,450.56 778.24,440.32 Z M 614.4,665.6 H 409.6 c -10.24,0 -17.06667,6.82667 -17.06667,17.06667 0,64.85333 54.61334,119.46666 119.46667,119.46666 64.85333,0 119.46667,-54.61333 119.46667,-119.46666 C 631.46667,672.42667 624.64,665.6 614.4,665.6 Z"
         fill=""
         p-id="18213"
         id="path3"
         style="fill:url(#linearGradient17);fill-opacity:1" /></g></g></svg>
