<?xml version="1.0" encoding="UTF-8" standalone="no"?>
<svg
   viewBox="0 0 24 24"
   version="1.1"
   id="svg1"
   sodipodi:docname="technology-light.svg"
   inkscape:version="1.3.2 (091e20e, 2023-11-25)"
   xmlns:inkscape="http://www.inkscape.org/namespaces/inkscape"
   xmlns:sodipodi="http://sodipodi.sourceforge.net/DTD/sodipodi-0.dtd"
   xmlns="http://www.w3.org/2000/svg"
   xmlns:svg="http://www.w3.org/2000/svg">
  <defs
     id="defs1" />
  <sodipodi:namedview
     id="namedview1"
     pagecolor="#ffffff"
     bordercolor="#000000"
     borderopacity="0.25"
     inkscape:showpageshadow="2"
     inkscape:pageopacity="0.0"
     inkscape:pagecheckerboard="0"
     inkscape:deskcolor="#d1d1d1"
     inkscape:zoom="14.395968"
     inkscape:cx="12.017254"
     inkscape:cy="12.017254"
     inkscape:window-width="1248"
     inkscape:window-height="957"
     inkscape:window-x="807"
     inkscape:window-y="197"
     inkscape:window-maximized="0"
     inkscape:current-layer="svg1" />
  <rect
     style="fill:#e4e6ea;fill-opacity:1;stroke-width:0"
     id="rect1"
     width="24"
     height="24"
     x="0"
     y="0"
     rx="4"
     ry="4" />
  <path
     d="M 13.599987,11.997949 A 1.5999871,1.6000478 0 1 1 12,10.397901 a 1.5999871,1.6000478 0 0 1 1.599987,1.600048 z m 4.679162,0 c 1.382389,2.204066 1.989584,4.320129 1.609587,5.828174 A 2.7055781,2.7056808 0 0 1 18.21355,19.764581 C 16.336765,20.507803 13.717586,19.347769 12,18.274937 10.286414,19.345369 7.6640349,20.508603 5.78645,19.764581 A 2.7055781,2.7056808 0 0 1 4.1112636,17.826123 C 3.7312666,16.318078 4.3384617,14.202015 5.7208506,11.997949 4.3384617,9.7938834 3.7312666,7.6778203 4.1112636,6.1697753 A 2.7055781,2.7056808 0 0 1 5.78645,4.2313174 C 7.3248376,3.6224992 9.6368192,4.2481179 12,5.724162 14.362381,4.2481179 16.675162,3.6224992 18.21355,4.2313174 a 2.7055781,2.7056808 0 0 1 1.675186,1.9384579 c 0.379997,1.508045 -0.227198,3.6241081 -1.609587,5.8281737 z M 6.7352424,10.561906 C 6.9160409,10.327499 7.0904395,10.093092 7.2864379,9.8602854 A 21.275028,21.275835 0 0 1 10.550412,6.7337921 C 9.4552207,6.1201738 7.5416358,5.2593481 6.3736453,5.7201618 A 1.1199909,1.1200334 0 0 0 5.663251,6.5577869 C 5.4544527,7.3922118 5.76005,8.8306546 6.7352424,10.561906 Z m 3.8247696,6.707401 A 21.295028,21.295836 0 0 1 7.2888379,14.135613 C 7.0928395,13.902806 6.9184409,13.668399 6.7376423,13.433992 5.7648502,15.165244 5.4576527,16.603687 5.665651,17.434112 a 1.1199909,1.1200334 0 0 0 0.7103943,0.840825 c 0.8791929,0.34801 2.4335806,-0.0248 4.1839667,-1.00563 z M 12,16.345279 a 19.346244,19.346978 0 0 0 3.489572,-3.242497 c 0.319997,-0.375211 0.600795,-0.743222 0.861593,-1.104833 -0.260798,-0.361611 -0.544796,-0.729622 -0.861593,-1.104833 A 19.367043,19.367778 0 0 0 12,7.6514195 19.367043,19.367778 0 0 0 8.510428,10.893116 c -0.3199974,0.375211 -0.6007951,0.743222 -0.861593,1.104833 0.2607979,0.361611 0.5447956,0.729622 0.861593,1.104833 A 19.372643,19.373378 0 0 0 12,16.345279 Z m 5.264758,-2.907287 c -0.180799,0.234407 -0.355198,0.468814 -0.551196,0.701621 a 21.291028,21.291836 0 0 1 -3.273574,3.129694 c 1.747186,0.980829 3.301574,1.35364 4.183167,1.00643 a 1.1199909,1.1200334 0 0 0 0.710394,-0.840825 c 0.211998,-0.831225 -0.0936,-2.269668 -1.068791,-3.99692 z M 18.336749,6.5577869 A 1.1199909,1.1200334 0 0 0 17.626355,5.7169617 C 16.458364,5.256148 14.54478,6.1169737 13.449588,6.730592 a 21.275028,21.275835 0 0 1 3.263974,3.1264933 c 0.195998,0.2328067 0.370397,0.4672137 0.551196,0.7016207 0.975192,-1.7280514 1.280789,-3.1664942 1.071991,-4.0009191 z"
     id="path1"
     style="fill:#10beeb;fill-opacity:1;stroke-width:0.800009" />
</svg>
