<?xml version="1.0" encoding="UTF-8"?>
<svg version="1.1" xmlns="http://www.w3.org/2000/svg" width="1200" height="1200">
<path d="M0 0 C396 0 792 0 1200 0 C1200 396 1200 792 1200 1200 C804 1200 408 1200 0 1200 C0 804 0 408 0 0 Z " fill="#FFFFFF" transform="translate(0,0)"/>
<path d="M0 0 C2.23210151 2.16279192 3.70209641 4.03190843 5.0912323 6.82170105 C5.47926025 7.59363297 5.86728821 8.36556488 6.26707458 9.16088867 C6.68320511 10.00393555 7.09933563 10.84698242 7.52807617 11.71557617 C8.1970845 13.05293571 8.1970845 13.05293571 8.87960815 14.41731262 C10.35643337 17.37305638 11.82469706 20.33296795 13.29296875 23.29296875 C14.32274191 25.35811643 15.35304892 27.42299799 16.38386536 29.48762512 C19.10358049 34.93852233 21.81608518 40.39297696 24.52709961 45.84820557 C27.25926868 51.34297479 29.9980269 56.83445676 32.73632812 62.32617188 C36.76951404 70.41640281 40.79908465 78.50841939 44.82495117 86.60229492 C48.54651111 94.08385556 52.27685149 101.56094212 56.01609802 109.03367615 C58.20191203 113.4023281 60.38320383 117.77323285 62.56420898 122.14428711 C66.45833989 129.94844137 70.35418228 137.75173909 74.25129604 145.55440426 C76.59329831 150.24367563 78.93452988 154.93332883 81.27416992 159.6237793 C83.55749387 164.20124756 85.84273955 168.77775153 88.12935066 173.35357857 C88.9972597 175.09124593 89.86446392 176.8292655 90.73095512 178.5676403 C91.93264752 180.97822816 93.13679195 183.38757541 94.34155273 185.79663086 C94.87835159 186.87562149 94.87835159 186.87562149 95.42599487 187.97640991 C96.89738374 191.20111053 96.89738374 191.20111053 99 194 C108.34246227 176.33478235 117.32898243 158.49920356 126.25463867 140.62109375 C128.17681645 136.77103924 130.1026227 132.9228128 132.02938557 129.07505131 C141.82428671 109.52866858 141.82428671 109.52866858 151.328125 89.83984375 C159.21619172 73.17799979 167.57376105 56.7421052 175.83422852 40.26287842 C178.11560675 35.7105143 180.39460399 31.15695851 182.67382812 26.60351562 C187.11361376 17.73453825 191.55594924 8.86684089 196 0 C199.1642104 2.95522689 200.83010304 6.32926355 202.6875 10.1875 C203.39957914 11.63940162 204.11182329 13.09122232 204.82421875 14.54296875 C205.18563965 15.28466309 205.54706055 16.02635742 205.91943359 16.79052734 C207.58953466 20.20544254 209.29542078 23.60220262 211 27 C211.66686227 28.33323551 212.33352836 29.66656917 213 31 C213.33 31.66 213.66 32.32 214 33 C233 70.99999999 233 70.99999999 233.94389343 72.88779461 C234.61007361 74.22015009 235.27626116 75.55250188 235.94245911 76.88484848 C237.56038568 80.12060976 239.17820808 83.35642297 240.7956543 86.59242439 C245.67862416 96.36110474 250.56796422 106.12658653 255.45905876 115.89120102 C265.50971323 135.95670344 275.55542152 156.02467955 285.59873962 176.0938549 C291.39586253 187.67774686 297.1945109 199.26087073 302.99658203 210.84228516 C308.0770929 220.98341706 313.15482033 231.1259368 318.22916603 241.27015507 C320.91089154 246.63099583 323.59402834 251.99111974 326.28051758 257.34957504 C328.79891986 262.37286756 331.31361637 267.39799707 333.82540703 272.42459869 C334.74961701 274.27246607 335.6752099 276.1196425 336.60225105 277.96609116 C337.86229128 280.47629728 339.11744196 282.98888721 340.37133789 285.50216675 C340.74330292 286.24027112 341.11526794 286.97837549 341.49850464 287.73884666 C344 292.77175486 344 292.77175486 344 295 C311.33 295 278.66 295 245 295 C229.16 263.32 213.32 231.64 197 199 C188.42076859 215.29405634 188.42076859 215.29405634 180.09898376 231.71438599 C178.48146447 234.96678186 176.86219932 238.21828617 175.24024963 241.46847534 C172.63702176 246.68616638 170.03703858 251.90547014 167.4375 257.125 C164.38980987 263.24404353 161.34076715 269.36240602 158.28840828 275.47912216 C157.07413221 277.91415269 155.86226604 280.35037253 154.65049744 282.78665161 C153.91481996 284.26163449 153.17903217 285.73656236 152.44311523 287.21142578 C152.1070929 287.88863678 151.77107056 288.56584778 151.42486572 289.26358032 C149.11384303 293.88615697 149.11384303 293.88615697 148 295 C144.98308782 295.13795572 141.98843202 295.21054544 138.96972656 295.24047852 C138.02176208 295.25347488 137.07379761 295.26647125 136.09710693 295.27986145 C126.17493476 295.40663742 116.25190175 295.46333388 106.32910156 295.51489258 C101.61638643 295.54166012 96.9046796 295.59041705 92.19238281 295.65844727 C86.51121501 295.74026572 80.83100935 295.78305676 75.14928436 295.79795647 C72.98182839 295.81022811 70.81440539 295.83631554 68.64728546 295.87640572 C65.61299202 295.9297286 62.5825125 295.93288893 59.54785156 295.92407227 C58.65102661 295.95126343 57.75420166 295.97845459 56.8302002 296.00646973 C50.92095961 295.91788633 50.92095961 295.91788633 48.45962238 293.46476269 C47.10858157 291.37028979 46.04440284 289.2622078 45 287 C44.25752752 285.59663958 43.51294225 284.194395 42.76628113 282.79325867 C42.00188092 281.27914741 41.24168511 279.76290822 40.48510742 278.24487305 C40.06497375 277.40971664 39.64484009 276.57456024 39.2119751 275.71409607 C37.83903843 272.98200594 36.47196906 270.24703313 35.10546875 267.51171875 C34.14871951 265.60211049 33.19179229 263.6925914 32.23469543 261.78315735 C30.23748158 257.79616538 28.24334822 253.80765089 26.2512207 249.81811523 C23.69452771 244.69890697 21.12871923 239.58432816 18.56045055 234.47091961 C16.58579605 230.53630856 14.61666094 226.59895532 12.64913368 222.66077614 C11.70485725 220.77273745 10.7586839 218.88564626 9.81059837 216.99951744 C8.49063846 214.37188152 7.17831374 211.74057083 5.86791992 209.1081543 C5.47369339 208.32734497 5.07946686 207.54653564 4.67329407 206.74206543 C2 201.34259453 2 201.34259453 2 198 C1.34 198 0.68 198 0 198 C-0.2404454 198.80588058 -0.48089081 199.61176117 -0.72862244 200.44206238 C-2.28207767 204.7893916 -4.26839115 208.80798444 -6.34204102 212.92700195 C-6.77963745 213.80409317 -7.21723389 214.68118439 -7.66809082 215.58485413 C-9.10946588 218.47129664 -10.5565633 221.35482719 -12.00390625 224.23828125 C-13.00785507 226.24498649 -14.01150795 228.25183981 -15.01487732 230.25883484 C-17.11478375 234.45708568 -19.21736688 238.65398106 -21.32202148 242.84985352 C-24.02538347 248.23953991 -26.72343303 253.63186379 -29.41967869 259.02511311 C-31.48976466 263.16501381 -33.56192965 267.30387088 -35.63480949 271.44237328 C-36.63089119 273.43134625 -37.62648271 275.42056477 -38.62158394 277.41002846 C-40.00816024 280.18102419 -41.39735717 282.95068932 -42.78735352 285.7199707 C-43.40842232 286.96278809 -43.40842232 286.96278809 -44.04203796 288.23071289 C-46.88552089 293.88552089 -46.88552089 293.88552089 -48 295 C-51.07454761 295.09532328 -54.12659158 295.1255138 -57.20141602 295.11352539 C-58.65004028 295.11374443 -58.65004028 295.11374443 -60.12792969 295.1139679 C-63.33661099 295.11326834 -66.54523503 295.10547397 -69.75390625 295.09765625 C-71.97208118 295.09579222 -74.19025652 295.09436825 -76.40843201 295.09336853 C-82.25940071 295.08954216 -88.11034477 295.07971086 -93.96130371 295.06866455 C-99.92667304 295.05845299 -105.89204633 295.05387146 -111.85742188 295.04882812 C-123.57162577 295.03808869 -135.28580995 295.02065539 -147 295 C-140.01708177 280.02598049 -132.68662753 265.23301429 -125.28847682 250.46088803 C-123.60002847 247.08837607 -121.91394704 243.71468094 -120.22755432 240.34114075 C-117.31680635 234.51912458 -114.40461362 228.69783305 -111.49139214 222.87705421 C-107.2795466 214.46154679 -103.06995354 206.04491421 -98.86088086 197.62801965 C-92.0291834 183.96680457 -85.19570601 170.30648066 -78.36108398 156.64672852 C-71.72830167 143.39036583 -65.0963734 130.13357645 -58.46557617 116.8762207 C-58.05573529 116.05680167 -57.64589442 115.23738264 -57.22363412 114.39313272 C-55.16725417 110.28167802 -53.11089083 106.17021502 -51.05453575 102.05874789 C-34.03893093 68.03787753 -17.02042679 34.01845819 0 0 Z " fill="#87EDF7" transform="translate(502,305)"/>
<path d="M0 0 C2.23210151 2.16279192 3.70209641 4.03190843 5.0912323 6.82170105 C5.47926025 7.59363297 5.86728821 8.36556488 6.26707458 9.16088867 C6.68320511 10.00393555 7.09933563 10.84698242 7.52807617 11.71557617 C8.1970845 13.05293571 8.1970845 13.05293571 8.87960815 14.41731262 C10.35643337 17.37305638 11.82469706 20.33296795 13.29296875 23.29296875 C14.32274191 25.35811643 15.35304892 27.42299799 16.38386536 29.48762512 C19.10358049 34.93852233 21.81608518 40.39297696 24.52709961 45.84820557 C27.25926868 51.34297479 29.9980269 56.83445676 32.73632812 62.32617188 C36.76951406 70.41640285 40.79904498 78.5084391 44.82495117 86.60229492 C51.1166032 99.24916178 57.43402694 111.88275571 63.78184223 124.50152588 C67.29347761 131.48233104 70.79936834 138.46600884 74.30310822 145.45077991 C76.64881367 150.12640083 78.99681141 154.80084392 81.34960938 159.47290039 C83.64637431 164.0339321 85.93733108 168.597837 88.22422791 173.16382408 C89.09292432 174.89567581 89.96373174 176.62647034 90.83668518 178.35618019 C92.04837704 180.75790472 93.25260193 183.16323148 94.45507812 185.56958008 C94.81653931 186.28171661 95.17800049 186.99385315 95.55041504 187.72756958 C97.01512512 190.67557548 98 192.66180315 98 196 C65.66 196 33.32 196 0 196 C-0.33 197.98 -0.66 199.96 -1 202 C-1.83865356 204.17229176 -1.83865356 204.17229176 -2.85986328 206.20747375 C-3.24684387 206.98837875 -3.63382446 207.76928375 -4.03253174 208.57385254 C-4.45749939 209.41097778 -4.88246704 210.24810303 -5.3203125 211.1105957 C-5.76751648 212.00719406 -6.21472046 212.90379242 -6.67547607 213.82756042 C-8.1509818 216.78087766 -9.63781685 219.72832942 -11.125 222.67578125 C-12.15314732 224.72715189 -13.18064493 226.77884829 -14.20751953 228.83085632 C-16.35813721 233.12445801 -18.51389372 237.41542348 -20.67382812 241.7043457 C-23.44835453 247.21372454 -26.21417455 252.7274132 -28.97671509 258.24281025 C-31.60664591 263.49272191 -34.24055323 268.74063463 -36.875 273.98828125 C-37.38017151 274.99522852 -37.88534302 276.00217579 -38.40582275 277.03963661 C-39.82825986 279.87298874 -41.25348106 282.70492069 -42.6796875 285.53637695 C-43.10465515 286.38362335 -43.5296228 287.23086975 -43.96746826 288.10379028 C-44.35444885 288.87059616 -44.74142944 289.63740204 -45.14013672 290.42744446 C-45.47713593 291.09716939 -45.81413513 291.76689432 -46.16134644 292.45691395 C-47 294 -47 294 -48 295 C-51.07454761 295.09532328 -54.12659158 295.1255138 -57.20141602 295.11352539 C-58.65004028 295.11374443 -58.65004028 295.11374443 -60.12792969 295.1139679 C-63.33661099 295.11326834 -66.54523503 295.10547397 -69.75390625 295.09765625 C-71.97208118 295.09579222 -74.19025652 295.09436825 -76.40843201 295.09336853 C-82.25940071 295.08954216 -88.11034477 295.07971086 -93.96130371 295.06866455 C-99.92667304 295.05845299 -105.89204633 295.05387146 -111.85742188 295.04882812 C-123.57162577 295.03808869 -135.28580995 295.02065539 -147 295 C-140.01708177 280.02598049 -132.68662753 265.23301429 -125.28847682 250.46088803 C-123.60002847 247.08837607 -121.91394704 243.71468094 -120.22755432 240.34114075 C-117.31680635 234.51912458 -114.40461362 228.69783305 -111.49139214 222.87705421 C-107.2795466 214.46154679 -103.06995354 206.04491421 -98.86088086 197.62801965 C-92.0291834 183.96680457 -85.19570601 170.30648066 -78.36108398 156.64672852 C-71.72830167 143.39036583 -65.0963734 130.13357645 -58.46557617 116.8762207 C-58.05573529 116.05680167 -57.64589442 115.23738264 -57.22363412 114.39313272 C-55.16725417 110.28167802 -53.11089083 106.17021502 -51.05453575 102.05874789 C-34.03893093 68.03787753 -17.02042679 34.01845819 0 0 Z " fill="#87EDF7" transform="translate(502,305)"/>
<path d="M0 0 C1.36916565 0.00539291 1.36916565 0.00539291 2.76599121 0.01089478 C3.72198715 0.01074875 4.67798309 0.01060272 5.66294861 0.01045227 C8.83916452 0.01115181 12.01532259 0.01894614 15.19152832 0.02676392 C17.387283 0.02862795 19.58303809 0.03005192 21.77879333 0.03105164 C27.5705784 0.03487798 33.36233857 0.04470926 39.15411377 0.05575562 C45.05915998 0.06596724 50.9642102 0.07054872 56.8692627 0.07559204 C68.46497679 0.08633142 80.06067236 0.10340923 91.65637207 0.12442017 C91.04243689 5.29708477 88.65285089 9.53814396 86.33605957 14.12149048 C85.88885559 15.01794281 85.44165161 15.91439514 84.980896 16.8380127 C83.50350852 19.79579215 82.01757936 22.7491889 80.53137207 25.70254517 C79.50339946 27.75543277 78.47589929 29.808557 77.44885254 31.86190796 C75.29706277 36.16088685 73.1413602 40.45787182 70.98254395 44.75332642 C68.20940147 50.27127239 65.44325498 55.79268688 62.67965698 61.31541824 C60.55912236 65.55234049 58.43632472 69.78812522 56.31268311 74.02349091 C55.29158906 76.05996589 54.27087793 78.09663292 53.25054932 80.13349152 C51.82802667 82.97169693 50.40280141 85.80852721 48.97668457 88.64492798 C48.55171692 89.49374542 48.12674927 90.34256287 47.68890381 91.21710205 C47.30192322 91.98535309 46.91494263 92.75360413 46.51623535 93.5451355 C46.17923615 94.21615925 45.84223694 94.887183 45.49502563 95.5785408 C44.65637207 97.12442017 44.65637207 97.12442017 43.65637207 98.12442017 C40.58182446 98.21974344 37.5297805 98.24993396 34.45495605 98.23794556 C33.00633179 98.2381646 33.00633179 98.2381646 31.52844238 98.23838806 C28.31976108 98.23768851 25.11113704 98.22989413 21.90246582 98.22207642 C19.68429089 98.22021239 17.46611555 98.21878841 15.24794006 98.2177887 C9.39697136 98.21396232 3.5460273 98.20413102 -2.30493164 98.19308472 C-8.27030097 98.18287316 -14.23567426 98.17829163 -20.2010498 98.17324829 C-31.91525337 98.16250886 -43.6294386 98.14543101 -55.34362793 98.12442017 C-49.37819242 85.41443962 -43.2546467 72.79586554 -36.96862793 60.24160767 C-36.10938094 58.52243759 -35.25025254 56.80320825 -34.39123535 55.08392334 C-32.61445275 51.5289025 -30.83626273 47.97459048 -29.05700684 44.42080688 C-26.77333578 39.85923813 -24.49334498 35.29584082 -22.21435547 30.73193169 C-20.45207871 27.20377948 -18.68791274 23.67657468 -16.92315674 20.14966202 C-16.08047752 18.46497083 -15.23839285 16.77998212 -14.39691162 15.09469223 C-13.23133743 12.76102057 -12.06323003 10.428635 -10.89440918 8.09658813 C-10.373993 7.05271942 -10.373993 7.05271942 -9.84306335 5.98776245 C-6.95373557 0.2348474 -6.54000733 0.01088466 0 0 Z " fill="#69E9F5" transform="translate(410.3436279296875,501.8755798339844)"/>
<path d="M0 0 C0.495 0.99 0.495 0.99 1 2 C0.35779667 3.77659798 0.35779667 3.77659798 -0.73997498 5.96096802 C-1.15089386 6.78830444 -1.56181274 7.61564087 -1.98518372 8.4680481 C-2.44696518 9.37722992 -2.90874664 10.28641174 -3.38452148 11.22314453 C-3.86230042 12.1792865 -4.34007935 13.13542847 -4.83233643 14.12054443 C-6.42103733 17.29514887 -8.02101444 20.46392987 -9.62109375 23.6328125 C-10.72181048 25.82678954 -11.82182347 28.02111977 -12.92115784 30.21578979 C-15.82235719 36.00288541 -18.73313264 41.78511324 -21.64587402 47.56640625 C-24.61407381 53.4619544 -27.57326698 59.36201869 -30.53320312 65.26171875 C-36.34662212 76.84560325 -42.16985519 88.42452533 -48 100 C-51 99 -51 99 -52.08754253 97.44853401 C-52.42399697 96.77491262 -52.76045141 96.10129124 -53.10710144 95.40725708 C-53.49827652 94.63611572 -53.8894516 93.86497437 -54.29248047 93.07046509 C-54.71182861 92.21850555 -55.13117676 91.36654602 -55.56323242 90.48876953 C-56.01233475 89.59611389 -56.46143707 88.70345825 -56.92414856 87.78375244 C-58.4111425 84.82160818 -59.88352778 81.85246204 -61.35546875 78.8828125 C-62.38181212 76.82841587 -63.40886492 74.77437351 -64.43659973 72.72067261 C-66.59055125 68.4111136 -68.73762349 64.09821867 -70.87963867 59.78271484 C-73.62960247 54.2431199 -76.39362658 48.71069115 -79.16247082 43.18051338 C-81.28517701 38.93816648 -83.40180405 34.69281075 -85.51644325 30.44643784 C-86.53361181 28.40505472 -87.55235752 26.3644567 -88.57268333 24.32464981 C-89.99609421 21.47603611 -91.41162264 18.62364601 -92.82495117 15.77001953 C-93.25037201 14.92210846 -93.67579285 14.07419739 -94.11410522 13.20059204 C-94.49682083 12.42381104 -94.87953644 11.64703003 -95.27384949 10.84671021 C-95.60917285 10.17233477 -95.94449621 9.49795933 -96.28998089 8.80314827 C-97 7 -97 7 -97 4 C-97.66 4 -98.32 4 -99 4 C-99 3.34 -99 2.68 -99 2 C-97.77446915 1.98969254 -96.54893829 1.97938507 -95.28627014 1.96876526 C-83.76378827 1.87121208 -72.24136258 1.76849566 -60.71897221 1.66066074 C-54.79451973 1.60538308 -48.87006237 1.55195548 -42.94555664 1.50268555 C-37.23323041 1.45511326 -31.52096633 1.40277332 -25.80871391 1.34705925 C-23.62413508 1.32660325 -21.43953919 1.30789567 -19.2549305 1.29092598 C-16.2064303 1.26695355 -13.15804878 1.23688958 -10.10961914 1.20532227 C-9.19684204 1.1995668 -8.28406494 1.19381134 -7.34362793 1.18788147 C-3.35261476 1.53861061 -3.35261476 1.53861061 0 0 Z " fill="#A5F2F9" transform="translate(601,499)"/>
<path d="M0 0 C3.1642104 2.95522689 4.83010304 6.32926355 6.6875 10.1875 C7.39957914 11.63940162 8.11182329 13.09122232 8.82421875 14.54296875 C9.18563965 15.28466309 9.54706055 16.02635742 9.91943359 16.79052734 C11.58953466 20.20544254 13.29542078 23.60220262 15 27 C15.66686227 28.33323551 16.33352836 29.66656917 17 31 C17.495 31.99 17.495 31.99 18 33 C24.34505208 45.69010417 30.69010417 58.38020833 37.03515625 71.0703125 C37.37095703 71.74175293 37.70675781 72.41319336 38.05273438 73.10498047 C38.71992311 74.43968056 39.38659934 75.77463699 40.05273438 77.10986328 C41.70918303 80.42852358 43.37492723 83.7419296 45.05859375 87.046875 C45.38529053 87.69124512 45.7119873 88.33561523 46.04858398 88.99951172 C46.94636494 90.76927136 47.84805906 92.53704433 48.75 94.3046875 C50 97 50 97 50 99 C17.99 99 -14.02 99 -47 99 C-48 96 -48 96 -47.37341404 94.13158894 C-46.84107859 93.07383149 -46.84107859 93.07383149 -46.29798889 91.9947052 C-45.6942318 90.77688103 -45.6942318 90.77688103 -45.07827759 89.53445435 C-44.62584686 88.64756927 -44.17341614 87.7606842 -43.70727539 86.84692383 C-43.23925003 85.91014297 -42.77122467 84.97336212 -42.28901672 84.00819397 C-40.73466079 80.90297446 -39.16624236 77.80508349 -37.59765625 74.70703125 C-36.51918545 72.55941173 -35.44159505 70.41134989 -34.36485291 68.26286316 C-31.52459683 62.60146769 -28.67238112 56.94617965 -25.81768799 51.29205322 C-22.90836315 45.52449403 -20.01031349 39.75127669 -17.11132812 33.97851562 C-11.41861422 22.64675815 -5.71363841 11.3212202 0 0 Z " fill="#A5F2F9" transform="translate(698,305)"/>
<path d="M0 0 C2.28298993 2.10298708 3.71976568 4.06324432 5.10710144 6.83325195 C5.49827652 7.60714264 5.8894516 8.38103333 6.29248047 9.17837524 C6.92150269 10.44552872 6.92150269 10.44552872 7.56323242 11.73828125 C8.01233475 12.63122894 8.46143707 13.52417664 8.92414856 14.44418335 C10.40730897 17.39729757 11.88164491 20.35471639 13.35546875 23.3125 C14.38216095 25.36386409 15.4092094 27.41504992 16.43659973 29.46606445 C18.58819081 33.76482252 20.73542299 38.06572264 22.87963867 42.36816406 C25.63232407 47.89063924 28.39576094 53.40765122 31.16247082 58.92311096 C33.28484513 63.15703537 35.40151089 67.39379321 37.51644325 71.63143921 C38.53339613 73.66735006 39.55214104 75.70236676 40.57268333 77.73648071 C41.99592397 80.57536897 43.4114487 83.41797211 44.82495117 86.26171875 C45.25037201 87.10648773 45.67579285 87.95125671 46.11410522 88.82162476 C46.49682083 89.59551544 46.87953644 90.36940613 47.27384949 91.16674805 C47.60917285 91.83852585 47.94449621 92.51030365 48.28998089 93.20243835 C49 95 49 95 49 98 C16.99 98 -15.02 98 -48 98 C-46.75857844 94.27573533 -45.72354226 91.1972291 -44.01315308 87.78579712 C-43.62335266 87.00344696 -43.23355225 86.2210968 -42.8319397 85.41503906 C-42.40899628 84.57634277 -41.98605286 83.73764648 -41.55029297 82.87353516 C-41.10133667 81.97533051 -40.65238037 81.07712585 -40.18981934 80.15170288 C-38.7110617 77.19557633 -37.22666389 74.24232083 -35.7421875 71.2890625 C-34.71336541 69.23515006 -33.68489738 67.18106022 -32.6567688 65.12680054 C-29.95431956 59.72952572 -27.24707331 54.33467105 -24.53881836 48.94030762 C-21.77427766 43.4317118 -19.0142842 37.92083886 -16.25390625 32.41015625 C-10.8403835 21.60453835 -5.42178987 10.80147191 0 0 Z " fill="#6AE9F5" transform="translate(502,305)"/>
<path d="M0 0 C31.68 0 63.36 0 96 0 C94.76765747 3.6970276 93.74790423 6.75417983 92.05111694 10.13827515 C91.66973068 10.903797 91.28834442 11.66931885 90.895401 12.45803833 C90.48180832 13.27803314 90.06821564 14.09802795 89.64208984 14.94287109 C89.20288712 15.8215686 88.76368439 16.70026611 88.31117249 17.60559082 C86.8648804 20.49678656 85.41294901 23.38511052 83.9609375 26.2734375 C82.95453562 28.28250942 81.94848786 30.29175878 80.94277954 32.30117798 C78.29951427 37.58008562 75.65145216 42.8565727 73.00238037 48.13256836 C70.2981621 53.52051762 67.59849225 58.91074468 64.8984375 64.30078125 C59.60340479 74.86942043 54.30330119 85.43550777 49 96 C48.01 96 47.02 96 46 96 C39.99294832 84.07848402 33.99449005 72.15268835 28.0070343 60.22131729 C25.22669598 54.68153541 22.44339382 49.14328449 19.65332031 43.60839844 C16.9620138 38.26917383 14.27849089 32.92610465 11.60037231 27.5802536 C10.57607598 25.53906473 9.5489593 23.49928869 8.51901245 21.46094513 C7.07945288 18.61076454 5.64990695 15.75577358 4.22265625 12.89941406 C3.57745529 11.6305838 3.57745529 11.6305838 2.91921997 10.33612061 C2.33864334 9.16671936 2.33864334 9.16671936 1.74633789 7.97369385 C1.40711807 7.29894138 1.06789825 6.62418892 0.71839905 5.92898941 C0 4 0 4 0 0 Z " fill="#69E9F5" transform="translate(700,502)"/>
<path d="M0 0 C0.66 0 1.32 0 2 0 C6.40901468 8.0371412 10.60826323 16.1360858 14.5 24.4375 C20.00153568 36.17214603 25.75007525 47.73670404 31.92333984 59.13232422 C35.09605791 65.05421413 37.95388528 71.11654838 40.76733398 77.21606445 C42.97851702 81.97810175 45.38236566 86.5395883 48.05786133 91.05908203 C49 93 49 93 49 96 C17.32 96 -14.36 96 -47 96 C-46.25859017 92.29295085 -45.77775527 90.18090071 -44.17810059 86.9887085 C-43.79953415 86.22600647 -43.42096771 85.46330444 -43.03092957 84.67749023 C-42.4075042 83.44446167 -42.4075042 83.44446167 -41.77148438 82.18652344 C-41.33403397 81.30957825 -40.89658356 80.43263306 -40.44587708 79.52911377 C-39.00095465 76.63626488 -37.54749252 73.74780026 -36.09375 70.859375 C-35.08819761 68.85132791 -34.08311771 66.84304416 -33.07849121 64.83453369 C-30.97377987 60.62971135 -28.86515637 56.42688345 -26.75341797 52.22558594 C-24.0408091 46.82870844 -21.33519742 41.42836248 -18.63213348 36.02669907 C-16.55792195 31.88242306 -14.48144748 27.73928467 -12.40412903 23.59656525 C-11.40536376 21.60474762 -10.4069813 19.61273799 -9.40898132 17.6205368 C-8.0175915 14.84459729 -6.62349934 12.0700333 -5.22851562 9.29589844 C-4.81289871 8.46578247 -4.3972818 7.6356665 -3.96907043 6.78039551 C-1.11469105 1.11469105 -1.11469105 1.11469105 0 0 Z " fill="#69E9F5" transform="translate(649,405)"/>
</svg>
